<svg width="15" height="11" fill="none" xmlns="http://www.w3.org/2000/svg"><path d="M13.44 11H1.188C.5 11 0 10.41 0 9.756V1.244C0 .524.563 0 1.188 0H13.44c.688 0 1.188.59 1.188 1.244v8.512c0 .72-.563 1.244-1.188 1.244zM1.188.458c-.375 0-.75.328-.75.786v8.512c0 .458.312.786.75.786H13.44c.438 0 .75-.328.75-.786V1.244c0-.458-.312-.786-.75-.786H1.188z" fill="#94897C"/><path d="M7.314 5.762c-.063 0-.188-.066-.188-.131-.062-.13 0-.262.125-.327l7.064-3.602c.125-.065.25 0 .313.131.062.131 0 .262-.125.328L7.439 5.762h-.125z" fill="#94897C"/><path d="M7.314 5.762h-.125L.188 1.702c-.125-.065-.125-.196-.063-.327.063-.066.188-.131.313-.066l7.001 3.994c.125.066.125.197.125.328a.464.464 0 01-.25.13z" fill="#94897C"/></svg>