<svg width="25" height="25" fill="none" xmlns="http://www.w3.org/2000/svg"><path d="M12.344 24.344c-6.574 0-12-5.426-12-12s5.426-12 12-12 12 5.426 12 12-5.426 12-12 12z" stroke="#94897C" stroke-width=".688" stroke-miterlimit="10" stroke-linecap="round" stroke-linejoin="round"/><path d="M15.652 6.302a.917.917 0 100-1.833.917.917 0 000 1.833zm-5.867 8.433h2.2c1.467 0 2.75-1.283 2.75-2.75v-2.2c0-1.467-1.283-2.75-2.75-2.75h-2.2c-1.466 0-2.75 1.283-2.75 2.75v2.2c0 1.559 1.192 2.75 2.75 2.75z" stroke="#94897C" stroke-width=".688" stroke-miterlimit="10" stroke-linecap="round" stroke-linejoin="round"/></svg>